<svg width="837" height="269" viewBox="0 0 837 269" fill="none" xmlns="http://www.w3.org/2000/svg">
<rect x="5.25483" y="47.9356" width="815.516" height="216" rx="38" transform="rotate(-3 5.25483 47.9356)" fill="#0C2732" stroke="#60A5FA" stroke-width="10"/>
<path d="M733.268 166.516C722.692 167.07 714.879 164.377 709.829 158.437C704.779 152.496 701.992 144.519 701.467 134.506L699.822 103.115L688.514 103.707L687.462 83.6239L700.235 81.9391L702.106 56.287L724.384 55.1195L725.719 80.6035L745.296 79.5775L746.402 100.674L726.825 101.7L728.452 132.753C728.694 137.366 729.824 140.635 731.843 142.56C733.969 144.366 736.55 145.19 739.588 145.031C740.938 144.96 742.286 144.833 743.63 144.65C744.968 144.354 746.132 143.955 747.121 143.452L752.322 161.964C750.231 162.976 747.572 163.905 744.345 164.751C741.123 165.71 737.431 166.298 733.268 166.516Z" fill="#E5E5E5"/>
<path d="M647.146 171.03C639.945 171.407 633.103 170.017 626.62 166.859C620.249 163.696 614.923 158.954 610.643 152.635C606.363 146.316 603.979 138.487 603.489 129.148C603 119.81 604.553 111.774 608.149 105.042C611.745 98.3101 616.546 93.0379 622.551 89.2257C628.669 85.4076 635.328 83.3099 642.529 82.9325C649.617 82.5611 656.403 83.9542 662.887 87.1118C669.37 90.2695 674.752 95.008 679.032 101.327C683.312 107.647 685.696 115.476 686.186 124.814C686.675 134.153 685.122 142.188 681.526 148.92C677.93 155.652 673.073 160.927 666.955 164.745C660.837 168.563 654.234 170.658 647.146 171.03ZM646.014 149.427C649.164 149.262 651.705 148.226 653.636 146.32C655.561 144.301 656.888 141.637 657.617 138.327C658.452 134.898 658.749 130.878 658.508 126.265C658.272 121.764 657.559 117.853 656.37 114.53C655.293 111.202 653.694 108.691 651.575 106.997C649.449 105.191 646.811 104.37 643.661 104.535C640.511 104.7 637.917 105.795 635.879 107.82C633.949 109.726 632.565 112.393 631.729 115.822C631.006 119.244 630.763 123.206 630.998 127.706C631.24 132.319 631.9 136.29 632.977 139.618C634.16 142.828 635.815 145.336 637.94 147.143C640.172 148.831 642.863 149.592 646.014 149.427Z" fill="#E5E5E5"/>
<path d="M553.038 175.962C545.837 176.339 538.995 174.949 532.511 171.791C526.14 168.628 520.815 163.886 516.535 157.567C512.255 151.248 509.87 143.419 509.381 134.08C508.892 124.742 510.445 116.706 514.041 109.974C517.637 103.242 522.437 97.9699 528.443 94.1577C534.561 90.3397 541.22 88.2419 548.421 87.8645C555.509 87.4931 562.295 88.8862 568.778 92.0438C575.262 95.2015 580.644 99.94 584.924 106.259C589.203 112.579 591.588 120.408 592.078 129.746C592.567 139.085 591.014 147.12 587.418 153.852C583.822 160.584 578.965 165.859 572.847 169.677C566.729 173.495 560.126 175.59 553.038 175.962ZM551.906 154.359C555.056 154.194 557.597 153.158 559.527 151.252C561.452 149.233 562.78 146.569 563.509 143.259C564.344 139.83 564.641 135.81 564.4 131.197C564.164 126.696 563.451 122.785 562.262 119.462C561.185 116.134 559.586 113.623 557.467 111.929C555.341 110.123 552.703 109.302 549.553 109.467C546.403 109.632 543.809 110.727 541.771 112.752C539.84 114.658 538.457 117.325 537.621 120.754C536.898 124.176 536.654 128.138 536.89 132.638C537.132 137.251 537.791 141.222 538.868 144.55C540.052 147.76 541.707 150.268 543.832 152.075C546.064 153.763 548.755 154.524 551.906 154.359Z" fill="#E5E5E5"/>
<path d="M418.736 180.969L412.562 63.169L439.565 61.7538L441.033 89.7694L440.63 104.683C443.527 101.823 446.938 99.1061 450.865 96.5311C454.904 93.9502 459.792 92.5094 465.531 92.2086C474.757 91.7251 481.557 94.4713 485.932 100.447C490.413 106.305 492.928 114.465 493.476 124.929L496.2 176.91L469.366 178.316L466.819 129.711C466.524 124.085 465.536 120.301 463.855 118.358C462.286 116.41 459.87 115.521 456.607 115.692C453.682 115.845 451.239 116.594 449.279 117.937C447.318 119.281 445.163 121.199 442.811 123.692L445.739 179.554L418.736 180.969Z" fill="#E5E5E5"/>
<path d="M368.842 185.615C363.329 185.904 357.534 185.136 351.459 183.311C345.491 181.367 340.206 178.485 335.606 174.664L346.295 159.043C350.274 161.767 354.152 163.651 357.93 164.694C361.814 165.619 365.275 166.002 368.313 165.843C371.689 165.666 374.078 164.976 375.482 163.775C376.998 162.567 377.706 161.007 377.606 159.094C377.523 157.519 376.721 156.207 375.199 155.158C373.79 154.104 371.825 153.192 369.302 152.421C366.886 151.533 364.13 150.605 361.033 149.639C357.019 148.383 353.265 146.718 349.771 144.645C346.391 142.566 343.605 140.004 341.415 136.96C339.218 133.803 338.008 130.087 337.784 125.811C337.36 117.711 340.002 111.085 345.712 105.934C351.528 100.665 359.33 97.7744 369.119 97.2614C375.307 96.9371 381.042 97.6519 386.324 99.4059C391.605 101.16 396.129 103.518 399.895 106.479L389.383 122.261C386.227 120.17 383.107 118.754 380.022 118.013C376.931 117.16 373.923 116.81 370.998 116.963C368.185 117.11 366.074 117.729 364.664 118.818C363.367 119.901 362.766 121.343 362.86 123.143C362.937 124.606 363.508 125.817 364.573 126.777C365.639 127.736 367.321 128.607 369.618 129.389C371.91 130.059 374.888 130.918 378.553 131.967C382.899 133.093 386.819 134.693 390.313 136.766C393.918 138.834 396.819 141.446 399.016 144.603C401.212 147.759 402.431 151.644 402.673 156.257C402.944 161.433 401.838 166.173 399.356 170.477C396.874 174.782 393.054 178.31 387.896 181.063C382.844 183.697 376.492 185.214 368.842 185.615Z" fill="#E5E5E5"/>
<path d="M284.328 223.214C277.915 223.55 271.97 223.128 266.492 221.948C261.021 220.881 256.628 218.855 253.312 215.87C250.003 212.997 248.218 209.085 247.959 204.135C247.77 200.534 248.617 197.331 250.501 194.525C252.385 191.718 255.186 189.202 258.906 186.976L258.87 186.301C256.65 184.838 254.75 183.02 253.169 180.846C251.583 178.56 250.701 175.729 250.524 172.354C250.365 169.316 251.055 166.347 252.596 163.445C254.248 160.538 256.375 158.058 258.975 156.003L258.939 155.328C255.908 153.456 253.114 150.726 250.556 147.137C248.105 143.429 246.753 139.157 246.5 134.319C246.14 127.455 247.474 121.688 250.501 117.016C253.634 112.227 257.845 108.621 263.134 106.2C268.417 103.667 274.152 102.238 280.34 101.914C282.703 101.79 285.018 101.838 287.286 102.058C289.554 102.277 291.662 102.675 293.61 103.249L324.664 101.622L325.681 121.03L312.179 121.738L312.215 122.413C313.304 123.823 314.059 125.306 314.479 126.864C315.005 128.303 315.319 129.979 315.419 131.891C315.755 138.304 314.514 143.672 311.694 147.994C308.981 152.198 305.146 155.445 300.189 157.736C295.226 159.914 289.651 161.165 283.462 161.489C282 161.566 280.419 161.536 278.719 161.399C277.132 161.257 275.368 160.955 273.425 160.492C272.685 161.434 272.11 162.31 271.702 163.121C271.4 163.814 271.284 164.835 271.355 166.185C271.455 168.098 272.429 169.457 274.276 170.263C276.236 171.063 279.41 171.348 283.798 171.118L296.962 170.428C307.313 169.886 315.393 171.211 321.201 174.404C327.116 177.479 330.271 182.785 330.666 190.323C330.979 196.286 329.284 201.622 325.582 206.328C321.886 211.148 316.505 215.04 309.44 218.005C302.487 220.964 294.117 222.701 284.328 223.214ZM282.613 145.288C284.526 145.187 286.19 144.649 287.606 143.672C289.128 142.577 290.289 141.049 291.089 139.089C291.888 137.13 292.215 134.743 292.067 131.93C291.843 127.655 290.722 124.555 288.703 122.63C286.678 120.592 284.203 119.65 281.278 119.804C278.24 119.963 275.821 121.161 274.02 123.399C272.213 125.525 271.422 128.725 271.646 133.001C271.794 135.813 272.368 138.153 273.368 140.018C274.368 141.884 275.626 143.284 277.142 144.22C278.764 145.038 280.588 145.394 282.613 145.288ZM287.84 206.276C291.216 206.099 294.233 205.546 296.892 204.617C299.557 203.8 301.585 202.678 302.977 201.251C304.482 199.819 305.187 198.202 305.092 196.402C304.963 193.927 303.811 192.408 301.638 191.845C299.577 191.276 296.634 191.091 292.809 191.292L285.214 191.69C282.064 191.855 279.583 191.872 277.771 191.742C276.077 191.718 274.547 191.572 273.179 191.305C272 192.495 271.1 193.614 270.478 194.662C269.974 195.817 269.761 197.126 269.837 198.588C269.991 201.514 271.678 203.569 274.899 204.754C278.238 206.045 282.552 206.553 287.84 206.276Z" fill="#E5E5E5"/>
<path d="M152.784 192.948L150.158 142.907C150.156 142.876 150.142 142.848 150.119 142.828C150.095 142.808 150.064 142.797 150.032 142.799L111.625 144.812C111.602 144.813 111.579 144.819 111.558 144.828C111.537 144.838 111.518 144.852 111.503 144.868C111.487 144.885 111.475 144.904 111.468 144.925C111.46 144.946 111.457 144.968 111.459 144.99C111.505 145.568 111.557 146.485 111.615 147.739C111.757 150.828 107.703 152.081 106.016 149.434C105.451 148.551 105.587 146.654 105.503 145.35C105.5 145.292 105.472 145.239 105.426 145.2C105.38 145.162 105.319 145.142 105.257 145.146L83.0098 146.312C82.9531 146.315 82.8997 146.338 82.8607 146.376C82.8218 146.414 82.8004 146.465 82.8011 146.517C82.8003 148.863 83.7267 151.841 80.0356 152.391C78.9045 152.338 78.0693 151.963 77.53 151.268C77.1535 150.786 76.9348 149.939 76.8741 148.729C76.3531 138.434 75.764 127.141 75.1066 114.851C74.8449 109.934 78.5574 105.68 83.9587 105.393C119.429 103.517 149.35 101.949 173.722 100.689C174.76 100.634 176.235 100.888 177.253 101.283C181.018 102.748 183.003 105.471 183.209 109.454C184.404 132.558 185.694 157.16 187.077 183.26C187.198 185.56 187.125 187.138 186.858 187.992C185.984 190.803 183.677 193.02 180.587 193.991C179.844 194.224 178.458 194.393 176.431 194.499C168.902 194.891 162.204 195.236 156.337 195.534C154.275 195.64 153.09 194.777 152.784 192.948ZM103.356 109.873C96.1866 110.261 90.0475 110.583 84.9386 110.839C82.2448 110.972 80.9623 112.269 81.0912 114.728C81.3166 119.08 81.4641 121.87 81.5339 123.099C81.5354 123.128 81.5489 123.154 81.5716 123.173C81.5943 123.192 81.6243 123.201 81.6549 123.2L104.017 122.028C104.087 122.024 104.152 121.995 104.199 121.946C104.246 121.897 104.27 121.833 104.267 121.768L103.656 110.122C103.653 110.052 103.619 109.987 103.563 109.94C103.506 109.893 103.432 109.869 103.356 109.873ZM148.318 107.649C148.316 107.617 148.301 107.587 148.275 107.566C148.249 107.544 148.215 107.533 148.18 107.535L109.745 109.55C109.71 109.551 109.678 109.566 109.654 109.59C109.631 109.614 109.619 109.645 109.62 109.678L110.244 121.58C110.246 121.612 110.261 121.642 110.287 121.664C110.313 121.685 110.347 121.696 110.382 121.694L148.817 119.68C148.852 119.678 148.884 119.664 148.908 119.64C148.931 119.616 148.944 119.584 148.942 119.552L148.318 107.649ZM154.568 107.19C154.492 107.193 154.421 107.225 154.37 107.277C154.319 107.33 154.292 107.399 154.296 107.469L154.91 119.118C154.914 119.183 154.945 119.244 154.996 119.288C155.048 119.331 155.116 119.353 155.186 119.35L177.552 118.178C177.582 118.176 177.611 118.163 177.632 118.142C177.652 118.121 177.663 118.093 177.662 118.065C177.602 116.833 177.457 114.041 177.227 109.69C177.098 107.231 175.687 106.075 172.994 106.224C167.884 106.504 161.742 106.826 154.568 107.19ZM104.584 127.661C104.582 127.622 104.563 127.585 104.532 127.559C104.5 127.533 104.459 127.52 104.417 127.522L81.983 128.698C81.9407 128.7 81.901 128.718 81.8726 128.747C81.8442 128.776 81.8294 128.814 81.8314 128.853L82.4514 140.682C82.4534 140.721 82.4721 140.757 82.5034 140.783C82.5347 140.809 82.5761 140.823 82.6183 140.82L105.052 139.645C105.094 139.643 105.134 139.625 105.162 139.596C105.191 139.567 105.206 139.529 105.204 139.49L104.584 127.661ZM149.243 125.305C149.242 125.27 149.225 125.237 149.197 125.214C149.168 125.191 149.131 125.179 149.093 125.181L110.682 127.194C110.644 127.196 110.608 127.212 110.583 127.238C110.557 127.264 110.544 127.298 110.546 127.333L111.167 139.192C111.169 139.227 111.186 139.26 111.214 139.283C111.242 139.306 111.279 139.318 111.317 139.316L149.728 137.303C149.766 137.301 149.802 137.286 149.828 137.259C149.853 137.233 149.867 137.199 149.865 137.164L149.243 125.305ZM177.966 123.804C177.965 123.768 177.947 123.734 177.918 123.71C177.889 123.686 177.851 123.674 177.812 123.676L155.354 124.853C155.315 124.855 155.279 124.871 155.252 124.898C155.226 124.925 155.212 124.96 155.214 124.996L155.835 136.847C155.837 136.883 155.855 136.917 155.883 136.941C155.912 136.965 155.951 136.977 155.99 136.975L178.447 135.798C178.486 135.796 178.523 135.78 178.549 135.753C178.576 135.726 178.589 135.691 178.587 135.655L177.966 123.804ZM178.891 141.448C178.889 141.407 178.869 141.367 178.835 141.34C178.802 141.312 178.757 141.297 178.712 141.3L156.302 142.474C156.279 142.475 156.257 142.481 156.237 142.49C156.217 142.499 156.198 142.511 156.183 142.527C156.168 142.542 156.156 142.56 156.149 142.58C156.141 142.599 156.138 142.62 156.139 142.641L156.759 154.477C156.76 154.498 156.766 154.518 156.775 154.537C156.785 154.556 156.799 154.572 156.815 154.586C156.832 154.6 156.851 154.611 156.873 154.618C156.894 154.624 156.916 154.627 156.939 154.626L179.349 153.452C179.394 153.449 179.437 153.43 179.467 153.399C179.498 153.368 179.514 153.327 179.511 153.285L178.891 141.448ZM179.815 159.079C179.813 159.043 179.796 159.009 179.767 158.985C179.738 158.961 179.7 158.949 179.661 158.951L157.203 160.128C157.164 160.13 157.127 160.146 157.101 160.173C157.075 160.2 157.061 160.235 157.063 160.271L157.684 172.122C157.686 172.158 157.703 172.192 157.732 172.216C157.761 172.24 157.799 172.252 157.838 172.25L180.296 171.073C180.335 171.071 180.372 171.055 180.398 171.028C180.424 171.001 180.438 170.966 180.436 170.93L179.815 159.079ZM158.903 189.902C166.075 189.514 172.216 189.192 177.325 188.937C180.021 188.803 181.305 187.506 181.176 185.047C180.948 180.696 180.799 177.904 180.729 176.673C180.728 176.644 180.714 176.618 180.691 176.599C180.669 176.58 180.639 176.571 180.608 176.572L158.242 177.748C158.173 177.752 158.107 177.781 158.06 177.83C158.013 177.878 157.989 177.942 157.992 178.008L158.603 189.653C158.606 189.723 158.64 189.789 158.696 189.836C158.753 189.882 158.827 189.906 158.903 189.902Z" fill="#A9DC76"/>
<path fill-rule="evenodd" clip-rule="evenodd" d="M82.4909 140.774C82.5136 140.793 82.5436 140.802 82.5742 140.801L104.936 139.629C104.993 139.626 105.047 139.605 105.09 139.571L111.193 139.251C111.197 139.256 111.201 139.26 111.206 139.265C111.232 139.286 111.266 139.297 111.301 139.295L149.736 137.281C149.771 137.279 149.804 137.264 149.827 137.24C149.832 137.236 149.835 137.231 149.839 137.226L155.941 136.906C155.989 136.937 156.046 136.954 156.105 136.951L178.471 135.778C178.502 135.777 178.53 135.764 178.551 135.743C178.558 135.736 178.563 135.728 178.568 135.72L184.562 135.406C184.954 142.952 185.356 150.652 185.767 158.508L77.6833 164.172C77.3162 156.949 76.9169 149.249 76.4843 141.07L82.4744 140.756C82.4793 140.763 82.4846 140.769 82.4909 140.774ZM82.9021 146.299C82.86 146.301 82.8204 146.319 82.792 146.348C82.7636 146.377 82.7488 146.415 82.7508 146.454L83.3707 158.283C83.3728 158.322 83.3915 158.359 83.4228 158.384C83.4541 158.41 83.4953 158.424 83.5374 158.422L105.971 157.246C106.014 157.244 106.053 157.226 106.082 157.197C106.11 157.168 106.125 157.13 106.123 157.091L105.503 145.262C105.501 145.223 105.482 145.186 105.451 145.16C105.42 145.134 105.378 145.121 105.336 145.123L82.9021 146.299ZM111.601 144.795C111.563 144.797 111.527 144.813 111.502 144.839C111.476 144.865 111.463 144.899 111.465 144.934L112.086 156.793C112.088 156.828 112.105 156.861 112.133 156.884C112.161 156.907 112.199 156.919 112.237 156.918L150.648 154.904C150.686 154.902 150.722 154.887 150.747 154.86C150.773 154.834 150.786 154.8 150.784 154.765L150.163 142.906C150.161 142.871 150.144 142.838 150.116 142.815C150.088 142.792 150.051 142.78 150.013 142.782L111.601 144.795ZM156.274 142.454C156.235 142.456 156.198 142.472 156.172 142.499C156.146 142.526 156.132 142.561 156.134 142.597L156.755 154.448C156.757 154.484 156.774 154.518 156.803 154.542C156.832 154.566 156.87 154.578 156.909 154.576L179.366 153.399C179.405 153.397 179.442 153.381 179.469 153.354C179.495 153.327 179.509 153.292 179.507 153.256L178.886 141.405C178.884 141.369 178.866 141.335 178.837 141.311C178.808 141.287 178.77 141.275 178.731 141.277L156.274 142.454Z" fill="#A9DC76"/>
<path fill-rule="evenodd" clip-rule="evenodd" d="M83.4134 158.375C83.436 158.393 83.466 158.403 83.4966 158.401L105.859 157.229C105.916 157.227 105.969 157.206 106.013 157.172L112.115 156.852C112.12 156.857 112.124 156.861 112.129 156.865C112.154 156.887 112.189 156.898 112.223 156.896L150.659 154.882C150.694 154.88 150.726 154.865 150.75 154.841C150.754 154.837 150.758 154.832 150.762 154.827L156.864 154.507C156.911 154.538 156.969 154.555 157.028 154.551L179.394 153.379C179.424 153.378 179.453 153.365 179.474 153.344C179.48 153.337 179.486 153.329 179.49 153.321L185.485 153.007C185.876 160.553 186.278 168.253 186.689 176.108L78.6058 181.773C78.2386 174.55 77.8393 166.85 77.4068 158.671L83.3969 158.357C83.4017 158.363 83.4071 158.369 83.4134 158.375ZM83.8245 163.9C83.7824 163.902 83.7428 163.919 83.7144 163.948C83.686 163.978 83.6712 164.016 83.6732 164.055L84.2932 175.884C84.2952 175.923 84.314 175.959 84.3453 175.985C84.3765 176.011 84.4177 176.025 84.4599 176.022L106.894 174.847C106.936 174.844 106.976 174.827 107.004 174.798C107.033 174.769 107.047 174.73 107.045 174.692L106.425 162.862C106.423 162.823 106.405 162.787 106.373 162.761C106.342 162.735 106.301 162.722 106.258 162.724L83.8245 163.9ZM112.524 162.396C112.486 162.398 112.45 162.413 112.424 162.44C112.399 162.466 112.385 162.5 112.387 162.535L113.009 174.394C113.011 174.429 113.027 174.462 113.056 174.485C113.084 174.508 113.121 174.52 113.159 174.518L151.57 172.505C151.608 172.503 151.644 172.487 151.67 172.461C151.695 172.435 151.709 172.401 151.707 172.366L151.085 160.507C151.083 160.472 151.067 160.439 151.038 160.416C151.01 160.393 150.973 160.381 150.935 160.383L112.524 162.396ZM157.196 160.054C157.157 160.056 157.121 160.073 157.094 160.1C157.068 160.126 157.054 160.162 157.056 160.198L157.677 172.049C157.679 172.085 157.697 172.119 157.725 172.143C157.754 172.167 157.792 172.179 157.831 172.177L180.289 171C180.328 170.998 180.365 170.982 180.391 170.955C180.417 170.928 180.431 170.893 180.429 170.857L179.808 159.005C179.806 158.969 179.789 158.936 179.76 158.912C179.731 158.888 179.693 158.875 179.654 158.877L157.196 160.054Z" fill="#A9DC76"/>
<path d="M148.166 104.97L150.784 155.011C150.786 155.041 150.775 155.071 150.753 155.093C150.732 155.116 150.702 155.13 150.671 155.131L112.263 157.144C112.24 157.145 112.217 157.142 112.195 157.135C112.173 157.127 112.153 157.116 112.136 157.101C112.118 157.086 112.105 157.068 112.095 157.048C112.085 157.028 112.08 157.007 112.079 156.985C112.065 156.404 112.021 155.487 111.947 154.234C111.766 151.147 107.603 150.325 106.202 153.134C105.732 154.07 106.066 155.943 106.118 157.249C106.121 157.306 106.099 157.363 106.057 157.406C106.016 157.449 105.957 157.475 105.895 157.478L83.6481 158.644C83.5914 158.647 83.5358 158.629 83.4931 158.595C83.4503 158.561 83.4238 158.513 83.419 158.461C83.173 156.128 83.783 153.07 80.0546 152.908C78.9354 153.08 78.1439 153.539 77.6801 154.287C77.3561 154.806 77.2272 155.671 77.2932 156.881C77.8513 167.174 78.4458 178.466 79.0767 190.758C79.3304 195.676 83.4672 199.518 88.8689 199.239C124.341 197.397 154.262 195.829 178.632 194.535C179.671 194.48 181.11 194.074 182.082 193.574C185.673 191.724 187.363 188.808 187.151 184.826C185.925 161.723 184.635 137.121 183.283 111.02C183.163 108.72 182.925 107.158 182.571 106.336C181.407 103.632 178.882 101.669 175.707 101.026C174.943 100.872 173.548 100.849 171.52 100.955C163.992 101.352 157.295 101.709 151.428 102.026C149.366 102.137 148.279 103.118 148.166 104.97ZM107.692 192.755C100.521 193.119 94.3818 193.441 89.2742 193.721C86.5811 193.869 85.1702 192.714 85.0413 190.255C84.8106 185.903 84.6657 183.113 84.6066 181.883C84.6051 181.855 84.6158 181.827 84.6364 181.806C84.657 181.785 84.6858 181.772 84.7164 181.771L107.079 180.599C107.148 180.595 107.216 180.617 107.268 180.661C107.32 180.704 107.351 180.765 107.354 180.831L107.964 192.476C107.968 192.546 107.941 192.615 107.89 192.668C107.839 192.72 107.768 192.752 107.692 192.755ZM152.64 190.267C152.642 190.3 152.629 190.331 152.606 190.355C152.582 190.379 152.55 190.394 152.515 190.395L114.08 192.41C114.045 192.412 114.011 192.401 113.985 192.379C113.959 192.358 113.944 192.328 113.942 192.296L113.318 180.393C113.317 180.361 113.329 180.329 113.352 180.305C113.376 180.281 113.408 180.267 113.443 180.265L151.878 178.251C151.913 178.249 151.947 178.26 151.973 178.281C151.999 178.303 152.014 178.333 152.016 178.365L152.64 190.267ZM158.904 190.072C158.828 190.076 158.754 190.052 158.697 190.005C158.641 189.958 158.607 189.893 158.604 189.823L157.997 178.173C157.994 178.108 158.018 178.044 158.065 177.995C158.112 177.946 158.177 177.917 158.247 177.913L180.613 176.741C180.644 176.74 180.674 176.749 180.696 176.768C180.719 176.787 180.732 176.813 180.734 176.842C180.804 178.073 180.951 180.865 181.177 185.216C181.306 187.676 180.023 188.972 177.329 189.106C172.218 189.362 166.076 189.683 158.904 190.072ZM107.053 174.938C107.055 174.976 107.04 175.015 107.012 175.044C106.984 175.073 106.944 175.09 106.902 175.093L84.468 176.268C84.4257 176.27 84.3844 176.257 84.3531 176.231C84.3218 176.205 84.3031 176.169 84.3011 176.13L83.6811 164.301C83.6791 164.262 83.6939 164.224 83.7223 164.195C83.7507 164.165 83.7904 164.148 83.8326 164.146L106.266 162.97C106.309 162.968 106.35 162.981 106.381 163.007C106.413 163.033 106.431 163.069 106.433 163.108L107.053 174.938ZM151.715 172.612C151.716 172.647 151.703 172.681 151.677 172.707C151.652 172.733 151.616 172.749 151.578 172.751L113.167 174.764C113.129 174.766 113.092 174.754 113.064 174.731C113.035 174.708 113.019 174.675 113.017 174.64L112.395 162.781C112.393 162.746 112.407 162.712 112.432 162.686C112.458 162.659 112.494 162.644 112.532 162.642L150.943 160.629C150.981 160.627 151.018 160.639 151.046 160.662C151.074 160.685 151.091 160.718 151.093 160.753L151.715 172.612ZM180.437 171.103C180.439 171.139 180.425 171.174 180.399 171.201C180.373 171.228 180.336 171.244 180.297 171.246L157.839 172.423C157.8 172.425 157.762 172.413 157.733 172.389C157.704 172.365 157.687 172.331 157.685 172.295L157.064 160.444C157.062 160.408 157.076 160.373 157.102 160.346C157.128 160.319 157.165 160.303 157.204 160.3L179.662 159.124C179.701 159.121 179.739 159.134 179.768 159.158C179.797 159.182 179.814 159.215 179.816 159.251L180.437 171.103ZM179.512 153.458C179.515 153.5 179.499 153.541 179.468 153.572C179.438 153.603 179.395 153.622 179.35 153.624L156.94 154.799C156.917 154.8 156.895 154.797 156.874 154.79C156.852 154.784 156.833 154.773 156.816 154.759C156.8 154.745 156.786 154.729 156.776 154.71C156.767 154.691 156.761 154.671 156.76 154.65L156.14 142.814C156.139 142.793 156.142 142.772 156.15 142.753C156.157 142.733 156.169 142.715 156.184 142.7C156.199 142.684 156.218 142.671 156.238 142.662C156.258 142.653 156.28 142.648 156.303 142.647L178.713 141.473C178.758 141.47 178.803 141.485 178.836 141.512C178.87 141.54 178.89 141.579 178.892 141.621L179.512 153.458ZM178.588 135.828C178.59 135.864 178.577 135.899 178.55 135.926C178.524 135.953 178.487 135.969 178.448 135.971L155.991 137.148C155.952 137.15 155.913 137.138 155.884 137.114C155.856 137.09 155.838 137.056 155.836 137.02L155.215 125.169C155.213 125.133 155.227 125.098 155.253 125.071C155.28 125.044 155.316 125.027 155.355 125.025L177.813 123.848C177.852 123.846 177.89 123.859 177.919 123.883C177.948 123.907 177.966 123.94 177.967 123.976L178.588 135.828ZM154.569 107.359C161.743 106.995 167.883 106.673 172.991 106.393C175.686 106.245 177.099 107.4 177.228 109.859C177.456 114.21 177.599 117.002 177.658 118.235C177.66 118.263 177.649 118.29 177.629 118.312C177.608 118.333 177.579 118.345 177.549 118.347L155.182 119.515C155.113 119.519 155.045 119.497 154.993 119.453C154.941 119.41 154.91 119.349 154.907 119.284L154.296 107.638C154.293 107.568 154.319 107.499 154.371 107.447C154.422 107.394 154.493 107.363 154.569 107.359Z" fill="#A9DC76"/>
<path fill-rule="evenodd" clip-rule="evenodd" d="M83.7109 164.205C83.7315 164.184 83.7603 164.172 83.7909 164.17L106.153 162.998C106.21 162.995 106.265 163.01 106.312 163.039L112.415 162.719C112.419 162.714 112.422 162.709 112.427 162.705C112.45 162.681 112.483 162.666 112.518 162.665L150.953 160.65C150.988 160.648 151.022 160.659 151.048 160.681C151.053 160.685 151.057 160.689 151.061 160.694L157.163 160.374C157.207 160.338 157.263 160.316 157.322 160.313L179.687 159.141C179.718 159.139 179.748 159.149 179.771 159.168C179.778 159.174 179.784 159.181 179.79 159.188L185.784 158.874C185.385 151.329 184.98 143.629 184.567 135.774L76.4839 141.438C76.8737 148.659 77.2815 156.359 77.7062 164.538L83.6963 164.225C83.7004 164.218 83.7052 164.211 83.7109 164.205ZM83.5423 158.668C83.5001 158.67 83.4589 158.656 83.4277 158.631C83.3964 158.605 83.3776 158.568 83.3756 158.529L82.7557 146.7C82.7536 146.661 82.7684 146.623 82.7969 146.594C82.8252 146.565 82.8648 146.547 82.907 146.545L105.341 145.369C105.383 145.367 105.425 145.38 105.456 145.406C105.487 145.432 105.506 145.469 105.508 145.508L106.128 157.337C106.13 157.376 106.115 157.414 106.087 157.443C106.058 157.472 106.018 157.49 105.976 157.492L83.5423 158.668ZM112.241 157.164C112.203 157.166 112.166 157.154 112.138 157.13C112.11 157.107 112.093 157.074 112.091 157.039L111.47 145.181C111.468 145.145 111.481 145.111 111.507 145.085C111.532 145.059 111.568 145.043 111.606 145.041L150.017 143.028C150.055 143.026 150.093 143.038 150.121 143.061C150.149 143.085 150.166 143.117 150.168 143.152L150.789 155.011C150.791 155.046 150.778 155.08 150.752 155.107C150.727 155.133 150.691 155.149 150.653 155.151L112.241 157.164ZM156.914 154.822C156.875 154.824 156.837 154.812 156.808 154.788C156.779 154.764 156.762 154.73 156.76 154.694L156.139 142.843C156.137 142.807 156.15 142.772 156.177 142.745C156.203 142.718 156.239 142.702 156.278 142.7L178.736 141.523C178.775 141.521 178.813 141.533 178.842 141.557C178.871 141.581 178.889 141.615 178.89 141.651L179.512 153.502C179.513 153.538 179.5 153.573 179.473 153.6C179.447 153.627 179.41 153.643 179.371 153.645L156.914 154.822Z" fill="#A9DC76"/>
<path fill-rule="evenodd" clip-rule="evenodd" d="M82.7885 146.605C82.8091 146.584 82.8379 146.571 82.8685 146.569L105.23 145.397C105.287 145.394 105.343 145.409 105.39 145.438L111.493 145.119C111.496 145.114 111.5 145.109 111.504 145.104C111.528 145.08 111.56 145.066 111.595 145.064L150.031 143.049C150.065 143.048 150.1 143.059 150.125 143.08C150.13 143.084 150.134 143.089 150.139 143.093L156.241 142.773C156.285 142.737 156.34 142.715 156.399 142.712L178.765 141.54C178.796 141.538 178.826 141.548 178.848 141.567C178.856 141.573 178.862 141.58 178.867 141.588L184.862 141.274C184.462 133.728 184.057 126.028 183.645 118.173L75.5614 123.837C75.9513 131.058 76.3591 138.759 76.7838 146.938L82.7739 146.624C82.778 146.617 82.7828 146.61 82.7885 146.605ZM82.6199 141.067C82.5777 141.069 82.5365 141.056 82.5053 141.03C82.474 141.004 82.4552 140.967 82.4532 140.928L81.8332 129.099C81.8312 129.06 81.846 129.022 81.8744 128.993C81.9028 128.964 81.9424 128.946 81.9845 128.944L104.418 127.768C104.461 127.766 104.502 127.779 104.533 127.805C104.565 127.831 104.583 127.868 104.585 127.907L105.205 139.736C105.207 139.775 105.193 139.813 105.164 139.842C105.136 139.871 105.096 139.889 105.054 139.891L82.6199 141.067ZM111.319 139.563C111.281 139.565 111.244 139.553 111.216 139.529C111.187 139.506 111.171 139.473 111.169 139.438L110.547 127.58C110.545 127.545 110.559 127.51 110.584 127.484C110.61 127.458 110.646 127.442 110.684 127.44L149.095 125.427C149.133 125.425 149.17 125.437 149.198 125.46C149.227 125.484 149.243 125.517 149.245 125.552L149.867 137.41C149.869 137.445 149.855 137.48 149.83 137.506C149.804 137.532 149.768 137.548 149.73 137.55L111.319 139.563ZM155.991 137.222C155.952 137.224 155.914 137.211 155.885 137.187C155.857 137.163 155.839 137.13 155.837 137.094L155.216 125.242C155.214 125.206 155.228 125.171 155.254 125.144C155.281 125.117 155.317 125.101 155.356 125.099L177.814 123.922C177.853 123.92 177.891 123.932 177.92 123.956C177.949 123.98 177.966 124.014 177.968 124.05L178.589 135.901C178.591 135.937 178.577 135.973 178.551 135.999C178.525 136.026 178.488 136.043 178.449 136.045L155.991 137.222Z" fill="#A9DC76"/>
</svg>
