<svg width="520" height="200" viewBox="0 0 520 200" fill="none" xmlns="http://www.w3.org/2000/svg">
<rect width="520" height="200" fill="#B3ECFF"/>
<rect x="0.5" y="0.5" width="519" height="199" stroke="black" stroke-opacity="0.5"/>
<path d="M397.781 107.968C397.781 109.632 398.293 110.816 399.317 111.52C400.405 112.224 401.909 112.576 403.829 112.576C404.789 112.576 405.781 112.512 406.805 112.384C407.829 112.192 408.725 111.968 409.493 111.712C410.069 112.416 410.549 113.216 410.933 114.112C411.381 114.944 411.605 115.968 411.605 117.184C411.605 119.616 410.677 121.6 408.821 123.136C407.029 124.672 403.829 125.44 399.221 125.44C393.589 125.44 389.237 124.16 386.165 121.6C383.157 119.04 381.653 114.88 381.653 109.12V68.032C382.357 67.84 383.349 67.648 384.629 67.456C385.973 67.2 387.381 67.072 388.853 67.072C391.669 67.072 393.845 67.584 395.381 68.608C396.981 69.568 397.781 71.648 397.781 74.848V80.992H410.357C410.741 81.696 411.093 82.592 411.413 83.68C411.797 84.704 411.989 85.856 411.989 87.136C411.989 89.376 411.477 91.008 410.453 92.032C409.493 92.992 408.181 93.472 406.517 93.472H397.781V107.968Z" fill="#0186B3"/>
<path d="M373.499 100.672C373.499 104.64 372.891 108.192 371.675 111.328C370.459 114.4 368.731 116.992 366.491 119.104C364.315 121.216 361.691 122.816 358.619 123.904C355.547 124.992 352.123 125.536 348.347 125.536C344.571 125.536 341.147 124.96 338.075 123.808C335.003 122.656 332.347 121.024 330.107 118.912C327.931 116.736 326.235 114.112 325.019 111.04C323.803 107.968 323.195 104.512 323.195 100.672C323.195 96.896 323.803 93.472 325.019 90.4C326.235 87.328 327.931 84.736 330.107 82.624C332.347 80.448 335.003 78.784 338.075 77.632C341.147 76.48 344.571 75.904 348.347 75.904C352.123 75.904 355.547 76.512 358.619 77.728C361.691 78.88 364.315 80.544 366.491 82.72C368.731 84.832 370.459 87.424 371.675 90.496C372.891 93.568 373.499 96.96 373.499 100.672ZM339.899 100.672C339.899 104.576 340.635 107.584 342.107 109.696C343.643 111.744 345.755 112.768 348.443 112.768C351.131 112.768 353.179 111.712 354.587 109.6C356.059 107.488 356.795 104.512 356.795 100.672C356.795 96.832 356.059 93.888 354.587 91.84C353.115 89.728 351.035 88.672 348.347 88.672C345.659 88.672 343.579 89.728 342.107 91.84C340.635 93.888 339.899 96.832 339.899 100.672Z" fill="#0186B3"/>
<path d="M317.249 100.672C317.249 104.64 316.641 108.192 315.425 111.328C314.209 114.4 312.481 116.992 310.241 119.104C308.065 121.216 305.441 122.816 302.369 123.904C299.297 124.992 295.873 125.536 292.097 125.536C288.321 125.536 284.897 124.96 281.825 123.808C278.753 122.656 276.097 121.024 273.857 118.912C271.681 116.736 269.985 114.112 268.769 111.04C267.553 107.968 266.945 104.512 266.945 100.672C266.945 96.896 267.553 93.472 268.769 90.4C269.985 87.328 271.681 84.736 273.857 82.624C276.097 80.448 278.753 78.784 281.825 77.632C284.897 76.48 288.321 75.904 292.097 75.904C295.873 75.904 299.297 76.512 302.369 77.728C305.441 78.88 308.065 80.544 310.241 82.72C312.481 84.832 314.209 87.424 315.425 90.496C316.641 93.568 317.249 96.96 317.249 100.672ZM283.649 100.672C283.649 104.576 284.385 107.584 285.857 109.696C287.393 111.744 289.505 112.768 292.193 112.768C294.881 112.768 296.929 111.712 298.337 109.6C299.809 107.488 300.545 104.512 300.545 100.672C300.545 96.832 299.809 93.888 298.337 91.84C296.865 89.728 294.785 88.672 292.097 88.672C289.409 88.672 287.329 89.728 285.857 91.84C284.385 93.888 283.649 96.832 283.649 100.672Z" fill="#0186B3"/>
<path d="M258.885 123.904C258.245 124.096 257.221 124.288 255.813 124.48C254.469 124.672 253.061 124.768 251.589 124.768C250.181 124.768 248.901 124.672 247.749 124.48C246.661 124.288 245.733 123.904 244.965 123.328C244.197 122.752 243.589 121.984 243.141 121.024C242.757 120 242.565 118.688 242.565 117.088V95.776C242.565 93.152 241.893 91.328 240.549 90.304C239.269 89.216 237.669 88.672 235.749 88.672C234.469 88.672 233.253 88.832 232.101 89.152C230.949 89.472 230.021 89.856 229.317 90.304V123.904C228.677 124.096 227.653 124.288 226.245 124.48C224.901 124.672 223.493 124.768 222.021 124.768C220.613 124.768 219.333 124.672 218.181 124.48C217.093 124.288 216.165 123.904 215.397 123.328C214.629 122.752 214.021 121.984 213.573 121.024C213.189 120 212.997 118.688 212.997 117.088V61.408C213.701 61.28 214.725 61.12 216.069 60.928C217.477 60.672 218.885 60.544 220.293 60.544C221.701 60.544 222.949 60.64 224.037 60.832C225.189 61.024 226.149 61.408 226.917 61.984C227.685 62.56 228.261 63.36 228.645 64.384C229.093 65.344 229.317 66.624 229.317 68.224V77.632C230.149 77.312 231.397 76.96 233.061 76.576C234.789 76.128 236.677 75.904 238.725 75.904C245.061 75.904 249.989 77.504 253.509 80.704C257.093 83.84 258.885 88.544 258.885 94.816V123.904Z" fill="#0186B3"/>
<path d="M204.914 110.08C204.914 114.944 203.09 118.752 199.442 121.504C195.794 124.256 190.418 125.632 183.314 125.632C180.626 125.632 178.13 125.44 175.826 125.056C173.522 124.672 171.538 124.096 169.874 123.328C168.274 122.496 166.994 121.472 166.034 120.256C165.138 119.04 164.69 117.6 164.69 115.936C164.69 114.4 165.01 113.12 165.65 112.096C166.29 111.008 167.058 110.112 167.954 109.408C169.81 110.432 171.922 111.36 174.29 112.192C176.722 112.96 179.506 113.344 182.642 113.344C184.626 113.344 186.13 113.056 187.154 112.48C188.242 111.904 188.786 111.136 188.786 110.176C188.786 109.28 188.402 108.576 187.634 108.064C186.866 107.552 185.586 107.136 183.794 106.816L180.914 106.24C175.346 105.152 171.186 103.456 168.434 101.152C165.746 98.784 164.402 95.424 164.402 91.072C164.402 88.704 164.914 86.56 165.938 84.64C166.962 82.72 168.402 81.12 170.258 79.84C172.114 78.56 174.322 77.568 176.882 76.864C179.506 76.16 182.386 75.808 185.522 75.808C187.89 75.808 190.098 76 192.146 76.384C194.258 76.704 196.082 77.216 197.618 77.92C199.154 78.624 200.37 79.552 201.266 80.704C202.162 81.792 202.61 83.104 202.61 84.64C202.61 86.112 202.322 87.392 201.746 88.48C201.234 89.504 200.562 90.368 199.73 91.072C199.218 90.752 198.45 90.432 197.426 90.112C196.402 89.728 195.282 89.408 194.066 89.152C192.85 88.832 191.602 88.576 190.322 88.384C189.106 88.192 187.986 88.096 186.962 88.096C184.85 88.096 183.218 88.352 182.066 88.864C180.914 89.312 180.338 90.048 180.338 91.072C180.338 91.776 180.658 92.352 181.298 92.8C181.938 93.248 183.154 93.664 184.946 94.048L187.922 94.72C194.066 96.128 198.418 98.08 200.978 100.576C203.602 103.008 204.914 106.176 204.914 110.08Z" fill="#0186B3"/>
<path d="M133.838 75.904C137.486 75.904 140.782 76.384 143.726 77.344C146.734 78.24 149.262 79.424 151.31 80.896C152.59 81.792 153.582 82.784 154.286 83.872C155.054 84.96 155.438 86.368 155.438 88.096V121.696C155.438 125.088 154.798 128 153.518 130.432C152.238 132.928 150.478 134.976 148.238 136.576C146.062 138.24 143.47 139.456 140.462 140.224C137.518 140.992 134.35 141.376 130.958 141.376C125.134 141.376 120.558 140.576 117.23 138.976C113.902 137.44 112.238 134.912 112.238 131.392C112.238 129.92 112.526 128.608 113.102 127.456C113.742 126.368 114.446 125.536 115.214 124.96C117.07 125.984 119.15 126.848 121.454 127.552C123.822 128.256 126.254 128.608 128.75 128.608C132.206 128.608 134.958 128.032 137.006 126.88C139.054 125.728 140.078 123.872 140.078 121.312V119.776C137.454 120.928 134.254 121.504 130.478 121.504C127.598 121.504 124.846 121.088 122.222 120.256C119.662 119.36 117.39 118.016 115.406 116.224C113.486 114.368 111.918 112 110.702 109.12C109.55 106.24 108.974 102.816 108.974 98.848C108.974 94.944 109.582 91.552 110.798 88.672C112.078 85.792 113.806 83.424 115.982 81.568C118.222 79.648 120.846 78.24 123.854 77.344C126.926 76.384 130.254 75.904 133.838 75.904ZM139.79 89.824C139.342 89.568 138.67 89.312 137.774 89.056C136.942 88.8 135.886 88.672 134.606 88.672C131.47 88.672 129.102 89.568 127.502 91.36C125.966 93.088 125.198 95.584 125.198 98.848C125.198 102.56 125.966 105.248 127.502 106.912C129.102 108.512 131.118 109.312 133.55 109.312C136.174 109.312 138.254 108.704 139.79 107.488V89.824Z" fill="#0186B3"/>
</svg>
